<svg xmlns="http://www.w3.org/2000/svg" xmlns:xlink="http://www.w3.org/1999/xlink" style="position:absolute; width:0; height:0; visibility:hidden;">

	<symbol id="tgz" viewBox="0 0 500 500">
    <path d="M311.816 131.8L311.352 75.656L366.568 132.264L311.816 131.8ZM372.136 431.08H126.68V71.016H298.36V131.336C298.36 142.008 301.608 145.256 312.28 145.256H372.6L372.136 431.08ZM372.136 445C381.88 445 386.056 440.824 386.056 431.08V145.72C386.056 135.976 384.664 130.872 378.168 123.912L320.632 64.984C314.6 58.952 310.424 57.096 298.824 57.096H126.68C115.544 57.096 112.76 59.88 112.76 71.016V431.08C112.76 441.752 116.008 445 126.68 445H372.136Z" fill="black"/>
    <path d="M206.848 325.945H179.426V402H168.234V325.945H140.871V316.688H206.848V325.945ZM280.852 390.809C277.961 394.949 273.918 398.055 268.723 400.125C263.566 402.156 257.551 403.172 250.676 403.172C243.723 403.172 237.551 401.551 232.16 398.309C226.77 395.027 222.59 390.379 219.621 384.363C216.691 378.348 215.188 371.375 215.109 363.445V356.004C215.109 343.152 218.098 333.191 224.074 326.121C230.09 319.051 238.527 315.516 249.387 315.516C258.293 315.516 265.461 317.801 270.891 322.371C276.32 326.902 279.641 333.348 280.852 341.707H269.602C267.492 330.418 260.773 324.773 249.445 324.773C241.906 324.773 236.184 327.43 232.277 332.742C228.41 338.016 226.457 345.672 226.418 355.711V362.684C226.418 372.254 228.605 379.871 232.98 385.535C237.355 391.16 243.273 393.973 250.734 393.973C254.953 393.973 258.645 393.504 261.809 392.566C264.973 391.629 267.59 390.047 269.66 387.82V368.66H249.914V359.52H280.852V390.809ZM308.098 392.801H356.906V402H294.797V393.562L341.555 325.945H295.559V316.688H355.031V324.949L308.098 392.801Z" fill="black"/>
  </symbol>

  <symbol id="hand" viewBox="0 0 500 500">
    <path d="M403.272 115.848C393.528 115.848 386.568 120.952 382.392 130.696L344.344 217.928L341.56 216.536L370.792 83.832C374.04 68.52 364.296 57.848 349.912 56.92C336.92 55.992 328.104 62.488 325.784 74.088L300.264 201.224L293.768 199.832L295.624 60.168C295.624 44.392 286.808 34.648 272.424 34.648C257.112 34.648 249.688 44.392 249.688 60.168L247.832 191.944H242.264L208.392 74.088C203.288 57.384 194.008 54.6 186.12 54.6C169.416 54.6 162.92 68.984 166.168 84.296L190.76 201.224C194.008 217 196.328 225.352 196.328 236.024C196.328 249.944 184.264 259.688 169.416 259.688C160.136 259.688 151.32 254.584 146.216 250.872L112.808 226.28C106.312 221.64 99.352 219.32 88.68 219.32C70.584 219.32 59.912 234.632 56.2 246.696C70.12 259.224 82.648 269.896 92.856 280.104C128.584 315.832 143.432 353.416 161.992 366.408L194.472 388.68L191.224 435.544C190.296 445.288 193.544 449 204.216 449H330.888C341.56 449 345.272 445.288 344.344 435.544L340.168 398.888C375.432 363.624 376.824 339.496 378.68 255.512L420.44 151.112C422.76 145.544 424.152 141.832 424.152 135.336C424.152 125.592 416.264 115.848 403.272 115.848ZM364.76 253.656C365.224 345.064 356.408 364.088 331.816 388.68C328.104 392.392 326.248 396.104 326.712 402.136L329.96 435.544H205.144L207.464 392.856L221.848 397.496C225.096 398.424 228.808 396.568 229.736 393.784C231.128 389.608 228.344 385.896 225.56 384.968C221.384 383.112 212.568 380.792 202.824 377.544L174.056 358.056C151.32 342.744 142.504 311.192 99.816 268.504C89.144 257.832 83.576 251.336 72.44 243.448C74.76 239.272 80.328 232.776 90.072 232.776C96.568 232.776 101.672 234.632 108.632 239.736L142.04 264.328C150.392 270.36 161.064 272.68 169.416 272.68C196.792 272.68 209.784 251.8 209.784 236.024C209.784 224.424 207 212.36 203.752 197.976L179.16 83.832C177.304 75.016 178.696 68.056 187.048 68.056C191.224 68.056 193.544 70.376 195.864 78.264L229.736 197.976C231.128 203.544 233.912 205.4 239.48 205.4H250.616C257.576 205.4 260.824 203.544 260.824 194.728L263.608 58.776C263.608 50.888 267.32 47.64 273.816 47.64C279.384 47.64 282.632 51.816 282.632 58.776L280.312 199.832C280.312 207.72 282.632 210.504 289.592 212.36L299.8 214.216C306.76 215.144 311.4 214.216 313.256 204.936L338.776 78.728C340.168 72.696 343.416 69.448 348.056 69.448C355.48 69.448 359.192 74.088 357.336 82.44L328.104 214.68C326.248 222.104 327.64 224.888 334.136 227.672L341.56 230.92C347.592 233.704 350.84 232.312 352.696 229.064L394.92 135.336C400.024 123.736 414.872 129.768 409.768 142.296L364.76 253.656Z" fill="black"/>
  </symbol>
    
  <symbol id="dog" viewBox="0 0 500 500">
    <path d="M456.496 379.772C456.496 345.02 439.844 331.988 413.056 331.988C404.368 331.988 396.404 334.16 392.784 335.608C400.024 350.088 403.644 363.12 403.644 375.428C403.644 388.46 393.508 397.872 381.2 397.872C365.272 397.872 345 382.668 335.588 345.744C329.072 319.68 314.592 274.068 245.088 189.36C240.02 95.964 238.572 84.38 224.092 70.624C213.232 60.488 192.236 51.8 165.448 51.8C148.796 51.8 140.108 59.04 129.972 69.176L108.976 88L62.64 96.688C51.78 98.86 48.16 103.204 48.16 111.168C48.16 114.064 48.884 118.408 50.332 125.648L53.952 147.368C55.4 155.332 59.744 160.4 69.88 161.124C70.604 171.26 76.396 177.776 93.048 178.5L114.044 180.672C124.904 181.396 129.972 186.464 132.144 192.98L154.588 250.176L146.624 398.596C131.42 403.664 124.904 411.628 124.904 423.936C124.904 442.036 135.04 450 156.036 450H268.256C297.216 450 316.764 446.38 324.728 430.452C336.312 441.312 358.756 450.724 384.82 450.724C422.468 450.724 456.496 428.28 456.496 379.772ZM203.096 75.692C216.852 82.932 223.368 92.344 224.092 135.784C220.472 152.436 212.508 158.228 203.82 162.572C195.132 158.228 185.72 148.092 185.72 127.096C185.72 108.996 192.96 90.896 203.096 75.692ZM318.936 405.112C316.04 426.832 297.216 433.348 268.256 433.348H217.576C203.82 433.348 196.58 428.28 196.58 422.488C196.58 418.144 199.476 411.628 219.748 409.456V322.576C219.748 303.028 225.54 291.444 247.26 291.444C258.844 291.444 261.016 288.548 261.016 283.48C261.016 277.688 257.396 274.792 247.26 274.792C214.68 274.792 203.096 292.168 203.096 321.852V398.596C189.34 404.388 179.928 410.904 179.928 421.04C179.928 424.66 182.824 431.9 187.168 433.348H156.036C145.9 433.348 141.556 429.728 141.556 423.936C141.556 418.868 143.728 413.8 162.552 410.904L171.24 247.28L149.52 191.532C143.004 174.88 136.488 165.468 112.596 164.02L96.668 162.572C87.256 161.848 82.188 156.78 80.74 148.816C72.776 148.092 71.328 145.196 70.604 139.404L65.536 112.616L116.216 103.928L143.004 80.036C154.588 69.9 158.208 67.728 165.448 67.728C174.136 67.728 184.996 69.9 187.892 70.624C176.308 87.276 168.344 105.376 169.068 127.096C169.792 160.4 187.168 172.708 203.82 178.5C213.956 174.88 221.196 169.088 226.264 163.296L228.436 192.98C303.008 290.72 314.592 327.644 320.384 354.432C330.52 401.492 362.376 414.524 381.2 414.524C405.816 414.524 420.296 399.32 420.296 375.428C420.296 367.464 418.848 358.052 415.228 348.64C431.156 347.192 439.844 355.156 439.844 379.772C439.844 415.972 414.504 434.072 384.82 434.072C358.756 434.072 334.14 420.316 321.832 403.664L318.936 405.112ZM143.004 103.204C143.004 107.548 145.9 110.444 150.244 110.444C154.588 110.444 158.208 107.548 158.208 103.204C158.208 98.86 154.588 95.24 150.244 95.24C145.9 95.24 143.004 98.86 143.004 103.204Z" fill="black"/>
  </symbol>

  <symbol id="print" viewBox="0 0 500 500">
    <path d="M90.251 241.522C57.545 241.522 43.469 252.286 43.469 289.546V402.154C43.469 412.09 46.367 414.988 56.303 414.988H76.175V426.166C76.175 436.102 79.073 439 89.009 439H411.101C421.037 439 423.935 435.688 423.935 426.166V414.988H443.807C453.743 414.988 456.641 411.676 456.641 402.154V290.374C456.641 252.286 442.151 241.522 409.859 241.522H377.981V151.27C377.981 142.576 376.739 138.022 370.943 131.812L319.607 79.234C314.225 73.852 310.499 72.196 300.149 72.196H146.555C136.619 72.196 134.135 74.68 134.135 84.616V241.522H90.251ZM55.475 402.982V288.718C55.475 262.636 65.411 253.528 87.353 253.528H412.757C434.699 253.528 444.635 262.636 444.635 288.304V402.982H55.475ZM146.555 84.616H299.735V138.436C299.735 147.958 302.633 150.856 312.155 150.856H365.975V241.522H146.555V84.616ZM411.929 426.994H88.181V414.988H411.929V426.994ZM320.021 218.752C323.747 218.752 326.231 216.682 326.231 212.542C326.231 208.402 323.747 206.332 320.021 206.332H182.987C179.261 206.332 176.777 208.402 176.777 212.542C176.777 216.682 179.261 218.752 182.987 218.752H320.021ZM311.741 138.85V88.756L360.593 138.85H311.741ZM265.373 172.384C269.099 172.384 271.583 170.314 271.583 166.174C271.583 162.034 269.099 159.964 265.373 159.964H182.987C179.261 159.964 176.777 162.034 176.777 166.174C176.777 170.314 179.261 172.384 182.987 172.384H265.373ZM383.777 374.83C380.051 374.83 377.981 376.9 377.981 380.626C377.981 384.352 380.051 386.836 383.777 386.836H422.693C427.247 386.836 429.731 384.766 429.731 380.626C429.731 376.9 427.247 374.83 423.107 374.83H383.777ZM396.197 353.716C396.197 357.442 398.681 359.926 402.407 359.926C406.133 359.926 409.031 357.442 409.031 353.716C409.031 349.99 406.133 347.092 402.407 347.092C398.681 347.092 396.197 349.99 396.197 353.716ZM416.069 353.716C416.069 357.442 418.553 359.926 422.279 359.926C426.005 359.926 428.903 357.442 428.903 353.716C428.903 349.99 426.005 347.092 422.279 347.092C418.553 347.092 416.069 349.99 416.069 353.716Z" fill="black"/>
  </symbol>

  <symbol id="pdf" viewBox="0 0 500 500">
    <path d="M311.816 131.8L311.352 75.656L366.568 132.264L311.816 131.8ZM372.136 431.08H126.68V71.016H298.36V131.336C298.36 142.008 301.608 145.256 312.28 145.256H372.6L372.136 431.08ZM372.136 445C381.88 445 386.056 440.824 386.056 431.08V145.72C386.056 135.976 384.664 130.872 378.168 123.912L320.632 64.984C314.6 58.952 310.424 57.096 298.824 57.096H126.68C115.544 57.096 112.76 59.88 112.76 71.016V431.08C112.76 441.752 116.008 445 126.68 445H372.136ZM149.88 406.488H162.872V368.44C167.512 369.368 172.152 370.296 176.792 370.296C193.496 370.296 207.416 362.872 207.416 340.6C207.416 318.792 194.888 310.904 175.864 310.904C166.584 310.904 155.448 311.368 149.88 311.832V406.488ZM174.936 360.088C170.296 360.088 166.584 359.624 162.872 359.16V321.576C164.728 321.576 168.44 321.112 174.936 321.112C185.144 321.112 193.496 325.288 193.496 340.6C193.496 355.912 184.68 360.088 174.936 360.088ZM317.848 362.872H353.112V352.664H317.848V321.112H356.36V310.904H304.856V406.488H317.848V362.872ZM219.48 404.168C224.584 405.56 239.432 406.952 245 406.952C273.304 406.952 289.08 392.568 289.08 357.304C289.08 323.896 273.304 310.904 245.464 310.904C234.328 310.904 223.656 311.368 219.48 312.296V404.168ZM244.536 396.28C239.432 396.28 234.792 395.816 232.472 395.352V321.576H244.536C263.096 321.576 275.624 330.392 275.624 357.768C275.624 386.536 263.56 396.28 244.536 396.28Z" fill="black"/>
  </symbol>

   <symbol id="draft" viewBox="0 0 500 500">
    <path d="M428.504 285.312L419.688 202.72L395.56 176.736L328.744 158.176L284.664 138.688L252.648 98.32H231.768L217.384 143.328L178.408 159.104L132.008 154L70.76 231.024L100.92 295.984L121.8 304.8L108.344 319.184L137.576 395.744L194.648 402.704L231.768 385.536L262.856 389.248L281.416 415.232L353.336 342.848L354.728 324.752L390.456 305.264L387.208 299.696L428.504 285.312ZM294.872 214.32L267.032 203.648L176.088 229.168L228.52 154.464L241.512 111.312H246.152L273.528 146.576L280.024 192.048L294.872 214.32ZM375.144 183.232L340.808 192.976L308.328 217.104L292.088 187.872L286.056 153.072L324.104 171.168L375.144 183.232ZM211.816 157.248L204.392 164.208L167.272 220.352L142.216 193.44L135.72 192.976L99.528 217.568L86.072 228.704L138.04 166.992L180.728 171.632L211.816 157.248ZM414.12 276.032L381.176 288.096L342.664 232.88L319.464 222.672L347.304 204.112L392.312 191.12L407.624 207.36L414.12 276.032ZM219.704 229.632L247.544 220.816L231.304 231.024L140.36 278.352L148.712 219.424L171.448 244.48L219.704 229.632ZM137.576 205.504L128.296 279.28L134.792 287.168L128.76 295.056L110.2 285.776L87.928 238.912L137.576 205.504ZM372.824 300.16L342.664 316.864L340.808 337.744L283.272 394.816L235.016 324.288L267.96 289.488L308.328 280.208C312.504 279.28 315.288 274.176 312.968 269.536C311.576 266.752 308.328 264.896 303.224 266.288L259.144 277.424L222.488 315.936L157.992 280.672L239.192 239.84L267.96 217.104L334.776 243.552L372.824 300.16ZM253.112 375.328L228.52 371.152L194.184 386.464L178.408 357.232L179.336 333.104C179.8 328.464 177.48 325.68 173.304 325.68C169.128 325.68 167.272 327.536 166.808 331.712L164.488 358.624L177.48 386.464L147.32 382.752L123.192 321.04L147.32 288.56L221.56 330.32L253.112 375.328Z" fill="black"/>
  </symbol>
</svg>